<svg xmlns="http://www.w3.org/2000/svg" viewBox="0 0 1927.46 1008.75" fill="white"><g id="Capa_2" data-name="Capa 2"><g id="Capa_1-2" data-name="Capa 1"><path d="M1279.25,365.91v10.86c1.89-10,6.39-32.37,12.81-54.09.21-.74.43-1.47.64-2.21,4.42-14.6,9.69-28.72,15.59-38.42,6.71-11,13.29-21.33,20-30.79,3.09-4.38,6.26-8.57,9.47-12.56.41-.51.83-1,1.24-1.51h0c22.6-27.39,48.72-44.51,89.33-44.51,0,0,107-5.53,123.25-4.09,37.39,0,70.79,16.79,105.83,41.17,26.73,23.52,49.67,43.12,79,87.05,0,0,81.73-80.47,136.4-135.8C1797,92.41,1769.52,75.79,1709.64,43.71,1637.2,8.13,1603.29,2,1571.68.94c-28.85-1-73.36-1.51-109.08,0C1427.31,2.43,1390,10.28,1360.45,18c-49.23,14.26-94.64,39.27-133.64,72.31l-1.07.89q-8.49,7.24-16.58,15h0c-.46.44-.94.89-1.39,1.34q-8.76,8.48-17,17.54c-.09.6-.17,1.2-.25,1.8a366.78,366.78,0,0,1,88.71,239Z"/><path d="M1926.92,670.93l-188.56.13c-.13,74.56-5.38,117.68-32.52,130.62-17.24,8.19-76,17.53-132.75,17.83-38.52.19-64.35.13-89.31,0-12.21,0-24.15,0-37.17,0v.13h-1.35a174.81,174.81,0,0,1-114-42.13h0a175.3,175.3,0,0,1-61.59-133.46V385.89c-.28,1.54-.42,2.39-.42,2.39V387c-.38,2.1-.58,3.26-.58,3.26v-15.7a363.52,363.52,0,0,0-88-237.93l-1.35-1.61.52-.52C1112.94,57.77,1014.52,9.22,905,9.22c-201.09,0-364.69,163.6-364.69,364.69V644.05c0,96.82-78.77,175.6-175.59,175.6S189.1,740.87,189.1,644.05l-1.25-500.84-.07-26.45,0-13.12-41.74,0L0,103.77V304.44a.3.3,0,0,1,.06-.09v26.54L0,644.05c0,201.1,163.6,364.7,364.69,364.7s364.69-163.6,364.69-364.7V373.91c0-96.82,78.78-175.59,175.59-175.59s175.6,78.77,175.6,175.59V644.05c0,105.78,45.26,201.18,117.43,267.85a363.29,363.29,0,0,0,247.26,96.84h2.7v-.13c12.32,0,23.72,0,35.31,0,12.77.06,25.79.08,40.57.08,14.53,0,30.77,0,50.22-.13,23.12-.11,142.12-2.43,213.06-36.2,43.79-20.85,101.25-64.83,126.16-155.93,14.18-51.89,14.18-103.81,14.18-145.55Z"/></g></g></svg>